IKResults
version=1
nRows=19
nColumns=24
inDegrees=yes

Units are S.I. units (second, meters, Newtons, ...)
If the header above contains a line with 'inDegrees', this indicates whether rotational values are in degrees (yes) or radians (no).

endheader
time	pelvis_tilt	pelvis_list	pelvis_rotation	pelvis_tx	pelvis_ty	pelvis_tz	hip_flexion_r	hip_adduction_r	hip_rotation_r	knee_angle_r	ankle_angle_r	subtalar_angle_r	mtp_angle_r	hip_flexion_l	hip_adduction_l	hip_rotation_l	knee_angle_l	ankle_angle_l	subtalar_angle_l	mtp_angle_l	lumbar_extension	lumbar_bending	lumbar_rotation
      4.60000000	      9.99599033	      5.37035910	   -181.50051850	      0.31017387	      0.33611038	     -1.22960382	    102.30680946	    -33.37644733	     -0.94520923	   -141.27569666	     46.37544832	     16.21459718	      0.00000000	    116.52622018	    -38.40409952	     19.11433432	   -140.21738737	     44.37606484	     22.90275217	      0.00000000	    -12.09813684	      5.77748116	      7.90367058
      4.60500000	      9.98829192	      5.38318908	   -181.47771584	      0.31038071	      0.33580465	     -1.22955161	    102.36188902	    -33.38792927	     -0.92837130	   -141.30741509	     46.38127026	     16.17308881	      0.00000000	    116.62058213	    -38.39014982	     19.14109089	   -140.24468773	     44.35561887	     22.94351344	      0.00000000	    -12.11728349	      5.81770481	      7.86004013
      4.61000000	      9.87992821	      5.18124662	   -181.43668282	      0.31039439	      0.33570745	     -1.22910610	    102.49021890	    -33.44397391	     -0.55477991	   -141.33123337	     46.34930385	     16.21971339	      0.00000000	    116.66232874	    -38.27677402	     19.42347820	   -140.03229110	     43.62456753	     23.67039109	      0.00000000	    -12.22200258	      5.65772548	      7.79537694
      4.61500000	      9.86650838	      5.18498266	   -181.41650446	      0.31060730	      0.33547932	     -1.22914550	    102.52905225	    -33.43803999	     -0.53126631	   -141.35119898	     46.33886986	     16.23530595	      0.00000000	    116.73477611	    -38.27318086	     19.44347308	   -140.04362711	     43.59342613	     23.70384251	      0.00000000	    -12.25113847	      5.67648724	      7.73650849
      4.62000000	      9.84913723	      5.19900275	   -181.39119764	      0.31082184	      0.33525932	     -1.22913308	    102.56985591	    -33.44667503	     -0.51445493	   -141.37550365	     46.31054415	     16.25920050	      0.00000000	    116.81254605	    -38.25498640	     19.47659199	   -140.05079878	     43.53654716	     23.72249306	      0.00000000	    -12.27616438	      5.70425669	      7.66501038
      4.62500000	      9.83144432	      5.21867698	   -181.37769634	      0.31101108	      0.33507823	     -1.22907556	    102.60250562	    -33.45693329	     -0.51458659	   -141.39299093	     46.28523007	     16.26033699	      0.00000000	    116.88170850	    -38.24677687	     19.50973917	   -140.06969553	     43.49683866	     23.71892634	      0.00000000	    -12.31655423	      5.72282630	      7.74661987
      4.63000000	      9.81500750	      5.25359646	   -181.38308392	      0.31121808	      0.33493236	     -1.22907674	    102.62123274	    -33.45028517	     -0.64951935	   -141.39537046	     46.21145723	     15.89616061	      0.00000000	    116.97624533	    -38.25809763	     19.57720870	   -140.07549361	     43.43286971	     23.72411049	      0.00000000	    -12.36027291	      5.75270950	      7.77251303
      4.63500000	      9.80023790	      5.27125406	   -181.37328059	      0.31144727	      0.33474021	     -1.22909331	    102.64096140	    -33.44202969	     -0.59283457	   -141.40925116	     46.20641387	     16.07393691	      0.00000000	    117.04913943	    -38.24887982	     19.61784944	   -140.08193969	     43.38124121	     23.72579526	      0.00000000	    -12.39736851	      5.77756021	      7.77394427
      4.64000000	      9.78659164	      5.27749587	   -181.35204363	      0.31167298	      0.33456947	     -1.22907139	    102.67255858	    -33.45697611	     -0.58850096	   -141.41818059	     46.20119548	     16.06709747	      0.00000000	    117.09683352	    -38.22632085	     19.62516633	   -140.09377356	     43.36637668	     23.76469443	      0.00000000	    -12.43251531	      5.80429856	      7.73644899
      4.64500000	      9.77345264	      5.28654549	   -181.33317541	      0.31190425	      0.33439905	     -1.22909523	    102.71336687	    -33.45803092	     -0.56704202	   -141.42991966	     46.18747290	     16.07863209	      0.00000000	    117.15881483	    -38.21419863	     19.64796950	   -140.09229065	     43.31546348	     23.79100499	      0.00000000	    -12.46865061	      5.81454704	      7.72105250
      4.65000000	      9.76997307	      5.30208367	   -181.31892997	      0.31211759	      0.33423641	     -1.22905890	    102.75875880	    -33.46684452	     -0.57362619	   -141.44074938	     46.16611581	     16.05696820	      0.00000000	    117.22658793	    -38.19656325	     19.66584982	   -140.10085704	     43.30085561	     23.83011981	      0.00000000	    -12.49004143	      5.83472139	      7.72439028
      4.65500000	      9.74797970	      5.32723296	   -181.31815666	      0.31230882	      0.33411663	     -1.22902027	    102.77794216	    -33.46967281	     -0.59548262	   -141.45458865	     46.11278722	     16.02269094	      0.00000000	    117.28936283	    -38.19488367	     19.70880129	   -140.11598117	     43.27601181	     23.84417266	      0.00000000	    -12.53175998	      5.86769140	      7.73991439
      4.66000000	      9.74558916	      5.32792361	   -181.31139646	      0.31253337	      0.33395825	     -1.22902599	    102.83034452	    -33.46461328	     -0.59776216	   -141.45977073	     46.10725594	     15.95829734	      0.00000000	    117.34570272	    -38.19060447	     19.71643133	   -140.11773919	     43.25269094	     23.87840263	      0.00000000	    -12.55351325	      5.87237211	      7.72808270
      4.66500000	      9.72145429	      5.33951161	   -181.30192742	      0.31276004	      0.33384432	     -1.22905830	    102.82602033	    -33.45549581	     -0.59798664	   -141.45441215	     46.07655939	     15.98324657	      0.00000000	    117.38875384	    -38.18608578	     19.73305026	   -140.11706594	     43.20109715	     23.87898362	      0.00000000	    -12.60257944	      5.88511654	      7.71893871
      4.67000000	      9.72155263	      5.34419166	   -181.27422582	      0.31298076	      0.33368353	     -1.22906367	    102.86530431	    -33.47008945	     -0.59465836	   -141.45604099	     46.05687711	     15.98262413	      0.00000000	    117.44621329	    -38.16367218	     19.72626630	   -140.10918420	     43.16209898	     23.89834678	      0.00000000	    -12.61996224	      5.90366241	      7.66943988
      4.67500000	      9.80251459	      5.27823623	   -181.27444490	      0.31329625	      0.33335393	     -1.22893983	    103.10579875	    -33.45706815	     -0.54439492	   -141.45449453	     45.97305985	     15.71130544	      0.00000000	    117.53968836	    -38.15238462	     19.62647534	   -140.11949450	     43.10307986	     23.86171539	      0.00000000	    -12.54537713	      5.84887454	      7.65430722
      4.68000000	      9.79259072	      5.32381229	   -181.28114408	      0.31354348	      0.33326974	     -1.22887775	    103.11792780	    -33.44745817	     -0.60778000	   -141.45430006	     45.94934942	     15.63206670	      0.00000000	    117.58114685	    -38.15037133	     19.64724205	   -140.13180455	     43.18377875	     23.81483373	      0.00000000	    -12.59010639	      5.89657317	      7.70901388
      4.68500000	      9.75947049	      5.31135548	   -181.28560967	      0.31372726	      0.33319249	     -1.22874780	    103.14860739	    -33.43691280	     -0.56240253	   -141.45913029	     45.91289729	     15.60530157	      0.00000000	    117.62558828	    -38.13590574	     19.67194707	   -140.13807852	     43.07190219	     23.84752120	      0.00000000	    -12.64260687	      5.89157921	      7.73307107
      4.69000000	      9.68068013	      5.36200797	   -181.26792265	      0.31389633	      0.33324975	     -1.22872167	    103.04604643	    -33.45354031	     -0.63450973	   -141.45137528	     45.85987595	     15.54784395	      0.00000000	    117.61561402	    -38.11429904	     19.72476779	   -140.13948516	     43.04229901	     23.86509712	      0.00000000	    -12.75766489	      5.94589295	      7.75757558
